<svg width="51" height="51" viewBox="0 0 51 51" fill="none" xmlns="http://www.w3.org/2000/svg">
<path d="M25.4149 24.055V50.9999C25.4149 50.9999 36.5499 43.1799 44.3699 40.8849C44.3699 40.8849 44.7099 24.225 49.5549 15.895L25.4149 24.055Z" fill="#076170"/>
<path d="M32.385 46.92C32.385 46.92 32.81 23.035 33.66 21.845C34.51 20.57 41.82 19.295 41.82 19.295C41.82 19.295 38.845 41.65 39.525 43.095C39.61 43.01 36.55 44.285 32.385 46.92Z" fill="#0E9FB3"/>
<path d="M25.4149 50.9999C25.4149 50.9999 17.595 44.3699 5.43995 40.8849C5.43995 40.8849 6.37495 27.1999 1.95496 16.7449L25.4149 24.0549V50.9999Z" fill="#3BAACF"/>
<path d="M10.37 43.095C10.37 43.095 17.51 45.985 18.02 46.92C18.53 47.8549 18.53 22.865 18.53 22.865C18.53 22.865 8.75503 20.145 7.90503 20.145C7.90503 20.145 10.88 30.26 10.37 43.095Z" fill="#43E9DF"/>
<path opacity="0.3" d="M25.415 24.055V28.56L47.26 21.08C47.855 19.21 48.62 17.425 49.47 15.895L25.415 24.055ZM3.48499 21.42C3.05999 19.805 2.54999 18.275 1.87 16.745L25.33 24.055V28.56L3.48499 21.42Z" fill="black"/>
<path d="M0 14.365L24.225 19.72L51 13.26L24.735 11.815L0 14.365Z" fill="#4FC7E8"/>
<path d="M0 14.3651L1.955 19.7201L24.225 26.01V19.7201L0 14.3651Z" fill="#3BAACF"/>
<path d="M24.2251 26.01C24.2251 26.01 44.4551 18.53 49.4701 18.19C49.4701 18.19 49.8101 15.215 51.0001 13.345L24.2251 19.72V26.01Z" fill="#076170"/>
<path d="M7.22498 15.98L12.155 20.655L17.595 18.19L25.5 15.81L35.36 17L40.545 18.02L44.71 14.79L7.22498 15.98Z" fill="#11ADF0"/>
<path d="M17.595 18.19L25.5 15.81L35.36 17L44.71 14.79L24.99 12.92L7.22498 15.98L17.595 18.19Z" fill="#11ADF0"/>
<path d="M7.22498 15.98V21.93L17.17 24.65L17.595 18.19L7.22498 15.98Z" fill="#48EDF8"/>
<path d="M35.36 17L35.53 22.695L44.03 20.145L44.71 14.79L35.36 17Z" fill="#16BAC4"/>
<path d="M30.005 13.005C30.005 13.005 30.005 7.055 35.785 1.87C35.785 1.87 32.3 3.145 30.6 2.805C28.56 2.465 27.88 0 27.88 0C27.88 0 22.95 10.71 24.395 12.07C25.84 13.515 30.005 13.005 30.005 13.005Z" fill="#0798EA"/>
<path d="M22.4399 16.49C22.4399 16.49 19.1249 9.69004 12.0699 6.12004C12.0699 6.12004 17.5949 5.61004 18.8699 4.93004C20.4849 4.16504 21.4199 2.04004 21.4199 2.04004C21.4199 2.04004 27.5399 12.75 27.0299 14.365C26.5199 15.98 22.4399 16.49 22.4399 16.49Z" fill="#48EDF8"/>
<path d="M26.0099 15.725C26.0099 15.725 20.8249 17.765 14.1949 17.765C0.254944 17.68 -1.70006 7.65002 12.0699 8.58502C23.3749 9.43502 26.0099 15.725 26.0099 15.725Z" fill="#0798EA"/>
<path d="M25.0752 15.64C25.0752 15.64 31.1952 16.15 36.8902 14.705C48.7902 11.645 44.3702 2.63503 33.1502 6.46003C23.9702 9.60503 25.0752 15.64 25.0752 15.64Z" fill="#11ADF0"/>
<path d="M26.0101 15.725C26.0101 15.725 22.7801 17 18.6151 17C9.94509 17 8.67009 10.71 17.2551 11.305C24.3101 11.815 26.0101 15.725 26.0101 15.725Z" fill="#001582"/>
<path d="M26.0102 15.725C26.0102 15.725 30.2602 16.065 34.2552 15.045C42.5852 12.92 39.4402 6.63003 31.7052 9.26503C25.2452 11.475 26.0102 15.725 26.0102 15.725Z" fill="#001582"/>
</svg>
