<svg width="14" height="25" viewBox="0 0 14 25" fill="none" xmlns="http://www.w3.org/2000/svg">
<path d="M0 16.6667H2.8C2.8 18.1667 4.718 19.4444 7 19.4444C9.282 19.4444 11.2 18.1667 11.2 16.6667C11.2 15.1389 9.744 14.5833 6.664 13.8472C3.696 13.1111 0 12.1944 0 8.33333C0 5.84722 2.058 3.73611 4.9 3.02778V0H9.1V3.02778C11.942 3.73611 14 5.84722 14 8.33333H11.2C11.2 6.83333 9.282 5.55556 7 5.55556C4.718 5.55556 2.8 6.83333 2.8 8.33333C2.8 9.86111 4.256 10.4167 7.336 11.1528C10.304 11.8889 14 12.8056 14 16.6667C14 19.1528 11.942 21.2639 9.1 21.9722V25H4.9V21.9722C2.058 21.2639 0 19.1528 0 16.6667Z" fill="white"/>
</svg>
