<svg width="18" height="20" viewBox="0 0 18 20" fill="none" xmlns="http://www.w3.org/2000/svg">
<path d="M6.33338 3.24998H5.44448C3.34935 3.24998 2.30134 3.24998 1.65067 3.90878C1 4.56758 1 5.62868 1 7.74999V12.25C1 14.3713 1 15.4315 1.65067 16.0912C2.30134 16.75 3.34935 16.75 5.44448 16.75H6.33338M6.33338 5.02838C6.33338 2.96467 6.33338 1.93237 6.96183 1.36807C7.59028 0.803767 8.55117 0.972967 10.473 1.31227L12.5441 1.67857C14.6721 2.05387 15.7361 2.24197 16.3681 3.03217C17.0001 3.82328 17.0001 4.96628 17.0001 7.25319V12.7477C17.0001 15.0337 17.0001 16.1767 16.369 16.9678C15.7361 17.758 14.6712 17.9461 12.5432 18.3223L10.4739 18.6877C8.55206 19.027 7.59117 19.1962 6.96272 18.6319C6.33338 18.0676 6.33338 17.0353 6.33338 14.9716V5.02838Z" stroke="#E40606" stroke-width="1.5"/>
<path d="M8.99988 9.09991V10.8999" stroke="#E40606" stroke-width="1.5" stroke-linecap="round"/>
</svg>
