<svg width="21" height="21" viewBox="0 0 21 21" fill="none" xmlns="http://www.w3.org/2000/svg">
<path d="M10.002 20.002C4.47795 20.002 -4.72922e-05 15.524 -4.68093e-05 9.99995C-4.63265e-05 4.47695 4.47795 -4.90409e-05 10.002 -4.85579e-05C15.526 -0.00104753 20.002 4.47695 20.002 9.99995C20.003 15.524 15.526 20.002 10.002 20.002ZM10.006 11.752C10.251 11.7516 10.4874 11.6613 10.6703 11.4982C10.8532 11.335 10.9698 11.1104 10.998 10.867L11.005 10.751L11.001 5.24895L10.995 5.13295C10.967 4.88904 10.8503 4.66394 10.6671 4.50052C10.4839 4.3371 10.247 4.24678 10.0015 4.24678C9.75595 4.24678 9.51902 4.3371 9.33581 4.50052C9.1526 4.66394 9.0359 4.88904 9.00795 5.13295L9.00195 5.24995L9.00595 10.752L9.01295 10.869C9.04186 11.1122 9.15904 11.3364 9.34226 11.4989C9.52548 11.6615 9.762 11.7512 10.007 11.751L10.006 11.752ZM10.001 15.501C10.3329 15.501 10.6512 15.3691 10.8859 15.1344C11.1206 14.8997 11.2525 14.5814 11.2525 14.2495C11.2525 13.9175 11.1206 13.5992 10.8859 13.3645C10.6512 13.1298 10.3329 12.998 10.001 12.998C9.83667 12.998 9.67401 13.0304 9.52225 13.0934C9.3705 13.1563 9.23263 13.2485 9.11651 13.3647C9.00039 13.4809 8.9083 13.6189 8.84549 13.7707C8.78268 13.9225 8.75039 14.0852 8.75045 14.2495C8.75052 14.4137 8.78294 14.5764 8.84587 14.7282C8.9088 14.8799 9.001 15.0178 9.11722 15.1339C9.23343 15.25 9.37138 15.3421 9.52318 15.4049C9.67498 15.4677 9.83767 15.5 10.002 15.5L10.001 15.501Z" fill="#FF1744"/>
</svg>
