<svg width="280" height="280" viewBox="0 0 280 280" fill="none" xmlns="http://www.w3.org/2000/svg">
<path d="M280 140C280 127.765 278.396 115.583 275.23 103.765L140 140H280Z" fill="#03A9F4"/>
<path d="M140 0C127.765 5.34799e-07 115.583 1.60379 103.765 4.77039L140 140L140 0Z" fill="#FFEB3B"/>
<path d="M210 18.7564C199.404 12.639 188.053 7.93693 176.235 4.77034L140 140L210 18.7564Z" fill="#8BC34A"/>
<path d="M238.995 41.0051C230.344 32.3538 220.596 24.8738 210 18.7564L140 140L238.995 41.0051Z" fill="#4CAF50"/>
<path d="M261.243 70.0001C255.126 59.4044 247.646 49.6564 238.995 41.0051L140 140L261.243 70.0001Z" fill="#009688"/>
<path d="M275.23 103.765C272.063 91.9475 267.361 80.5957 261.243 70.0001L140 140L275.23 103.765Z" fill="#00BCD4"/>
<path d="M176.235 4.77034C164.417 1.60374 152.235 2.88704e-07 140 0L140 140L176.235 4.77034Z" fill="#CDDC39"/>
<path d="M103.765 4.77039C91.9474 7.93698 80.5957 12.6391 70.0001 18.7565L140 140L103.765 4.77039Z" fill="#FF5722"/>
<path d="M70 261.244C80.5956 267.361 91.9474 272.063 103.765 275.23L140 140L70 261.244Z" fill="#03A9F4"/>
<path d="M261.244 210C267.361 199.405 272.063 188.053 275.23 176.235L140 140L261.244 210Z" fill="#FFEB3B"/>
<path d="M210 261.244C220.596 255.126 230.344 247.646 238.995 238.995L140 140L210 261.244Z" fill="#8BC34A"/>
<path d="M176.235 275.23C188.053 272.063 199.404 267.361 210 261.244L140 140L176.235 275.23Z" fill="#4CAF50"/>
<path d="M140 280C152.235 280 164.417 278.396 176.235 275.23L140 140L140 280Z" fill="#009688"/>
<path d="M103.765 275.23C115.583 278.396 127.765 280 140 280L140 140L103.765 275.23Z" fill="#00BCD4"/>
<path d="M238.995 238.995C247.646 230.344 255.126 220.596 261.244 210L140 140L238.995 238.995Z" fill="#CDDC39"/>
<path d="M275.23 176.235C278.396 164.417 280 152.235 280 140H140L275.23 176.235Z" fill="#FF5722"/>
<path d="M70.0001 18.7565C59.4044 24.8739 49.6564 32.3537 41.0051 41.005L140 140L70.0001 18.7565Z" fill="#03A9F4"/>
<path d="M18.7564 210C24.8738 220.596 32.3537 230.344 41.005 238.995L140 140L18.7564 210Z" fill="#FFEB3B"/>
<path d="M0 140C1.29838e-06 152.235 1.60379 164.417 4.77039 176.235L140 140L0 140Z" fill="#8BC34A"/>
<path d="M4.77045 103.765C1.60385 115.583 -1.30884e-06 127.765 0 140L140 140L4.77045 103.765Z" fill="#4CAF50"/>
<path d="M18.7565 70.0001C12.6391 80.5957 7.93704 91.9475 4.77045 103.765L140 140L18.7565 70.0001Z" fill="#009688"/>
<path d="M41.0051 41.005C32.3538 49.6563 24.8739 59.4045 18.7565 70.0001L140 140L41.0051 41.005Z" fill="#00BCD4"/>
<path d="M4.77039 176.235C7.93698 188.053 12.639 199.404 18.7564 210L140 140L4.77039 176.235Z" fill="#CDDC39"/>
<path d="M41.005 238.995C49.6563 247.646 59.4043 255.126 70 261.244L140 140L41.005 238.995Z" fill="#FF5722"/>
</svg>
