<svg width="24" height="24" viewBox="0 0 24 24" fill="none" xmlns="http://www.w3.org/2000/svg">
<path d="M14.4 7.20007H2.4C1.0764 7.20007 0 8.27647 0 9.60007V21.6001C0 22.9237 1.0764 24.0001 2.4 24.0001H14.4C15.7236 24.0001 16.8 22.9237 16.8 21.6001V9.60007C16.8 8.27647 15.7236 7.20007 14.4 7.20007Z" fill="#6E797D"/>
<path d="M21.6001 0H9.60007C8.96355 0 8.3531 0.252856 7.90302 0.702944C7.45293 1.15303 7.20007 1.76348 7.20007 2.4V4.8H16.8001C17.4366 4.8 18.047 5.05286 18.4971 5.50294C18.9472 5.95303 19.2001 6.56348 19.2001 7.2V16.8H21.6001C22.2366 16.8 22.847 16.5471 23.2971 16.0971C23.7472 15.647 24.0001 15.0365 24.0001 14.4V2.4C24.0001 1.76348 23.7472 1.15303 23.2971 0.702944C22.847 0.252856 22.2366 0 21.6001 0Z" fill="#6E797D"/>
</svg>
