<svg width="36" height="36" viewBox="0 0 36 36" fill="none" xmlns="http://www.w3.org/2000/svg">
<path d="M18 7.3125C18.932 7.3125 19.6875 6.55698 19.6875 5.625C19.6875 4.69302 18.932 3.9375 18 3.9375C17.068 3.9375 16.3125 4.69302 16.3125 5.625C16.3125 6.55698 17.068 7.3125 18 7.3125Z" fill="white" stroke="white" stroke-width="1.5" stroke-linecap="round" stroke-linejoin="round"/>
<path d="M18 19.6875C18.932 19.6875 19.6875 18.932 19.6875 18C19.6875 17.068 18.932 16.3125 18 16.3125C17.068 16.3125 16.3125 17.068 16.3125 18C16.3125 18.932 17.068 19.6875 18 19.6875Z" fill="white" stroke="white" stroke-width="1.5" stroke-linecap="round" stroke-linejoin="round"/>
<path d="M18 32.0625C18.932 32.0625 19.6875 31.307 19.6875 30.375C19.6875 29.443 18.932 28.6875 18 28.6875C17.068 28.6875 16.3125 29.443 16.3125 30.375C16.3125 31.307 17.068 32.0625 18 32.0625Z" fill="white" stroke="white" stroke-width="1.5" stroke-linecap="round" stroke-linejoin="round"/>
</svg>
