<svg width="42" height="24" viewBox="0 0 42 24" fill="none" xmlns="http://www.w3.org/2000/svg">
<g filter="url(#filter0_i_19_110)">
<path d="M33.25 20.5714V24H12.25V20.5714C12.25 20.5714 12.25 13.7143 22.75 13.7143C33.25 13.7143 33.25 20.5714 33.25 20.5714ZM28 5.14286C28 4.1257 27.6921 3.13138 27.1152 2.28564C26.5383 1.4399 25.7184 0.78073 24.7591 0.391479C23.7998 0.00222833 22.7442 -0.0996174 21.7258 0.0988209C20.7074 0.297259 19.7719 0.787069 19.0377 1.50631C18.3035 2.22555 17.8034 3.14192 17.6009 4.13954C17.3983 5.13715 17.5023 6.17121 17.8996 7.11094C18.297 8.05068 18.9699 8.85388 19.8333 9.41899C20.6966 9.98409 21.7116 10.2857 22.75 10.2857C24.1424 10.2857 25.4777 9.74388 26.4623 8.77941C27.4469 7.81494 28 6.50683 28 5.14286ZM33.6 13.8171C34.5566 14.6817 35.3278 15.7242 35.8687 16.8839C36.4095 18.0435 36.7091 19.2971 36.75 20.5714V24H42V20.5714C42 20.5714 42 14.6571 33.6 13.8171ZM31.5 1.95686e-06C30.9713 0.000311922 30.4458 0.0812819 29.9425 0.240002C30.9663 1.67824 31.5153 3.38946 31.5153 5.14286C31.5153 6.89626 30.9663 8.60748 29.9425 10.0457C30.4458 10.2044 30.9713 10.2854 31.5 10.2857C32.8924 10.2857 34.2277 9.74388 35.2123 8.77941C36.1969 7.81494 36.75 6.50683 36.75 5.14286C36.75 3.77889 36.1969 2.47078 35.2123 1.50631C34.2277 0.541837 32.8924 1.95686e-06 31.5 1.95686e-06ZM14 8.57143H8.75V3.42857H5.25V8.57143H0V12H5.25V17.1429H8.75V12H14V8.57143Z" fill="#E7E7E7"/>
</g>
<defs>
<filter id="filter0_i_19_110" x="0" y="0" width="42" height="24" filterUnits="userSpaceOnUse" color-interpolation-filters="sRGB">
<feFlood flood-opacity="0" result="BackgroundImageFix"/>
<feBlend mode="normal" in="SourceGraphic" in2="BackgroundImageFix" result="shape"/>
<feColorMatrix in="SourceAlpha" type="matrix" values="0 0 0 0 0 0 0 0 0 0 0 0 0 0 0 0 0 0 127 0" result="hardAlpha"/>
<feOffset/>
<feGaussianBlur stdDeviation="1.5"/>
<feComposite in2="hardAlpha" operator="arithmetic" k2="-1" k3="1"/>
<feColorMatrix type="matrix" values="0 0 0 0 1 0 0 0 0 1 0 0 0 0 1 0 0 0 1 0"/>
<feBlend mode="normal" in2="shape" result="effect1_innerShadow_19_110"/>
</filter>
</defs>
</svg>
